<?xml version="1.0" encoding="utf-8"?>
<!-- Generator: Adobe Illustrator 23.0.1, SVG Export Plug-In . SVG Version: 6.00 Build 0)  -->
<svg version="1.1" id="Ebene_1" xmlns="http://www.w3.org/2000/svg" xmlns:xlink="http://www.w3.org/1999/xlink" x="0px" y="0px"
	 viewBox="0 0 595.28 260" style="enable-background:new 0 0 595.28 260;" xml:space="preserve">
<style type="text/css">
	.st0{fill:url(#SVGID_1_);}
	.st1{fill:url(#SVGID_2_);}
	.st2{fill:#001F1E;}
</style>
<g>
	<linearGradient id="SVGID_1_" gradientUnits="userSpaceOnUse" x1="41.9071" y1="119.8008" x2="170.924" y2="119.8008">
		<stop  offset="0" style="stop-color:#67B14F"/>
		<stop  offset="1" style="stop-color:#00892E"/>
	</linearGradient>
	<path class="st0" d="M148.1,30.74c0.54,93.17-86.89,70.62-104.46,127.16c-5.46,17.57,2.47,34.69,16.89,45.15
		c-2.6-2.78-4.73-6.06-6.36-9.87c-2.06-4.8-3.1-10.41-3.1-16.85c0-6.34,1.03-11.78,3.1-16.34c2.06-4.56,4.77-8.3,8.14-11.23
		c3.36-2.93,7.2-5.09,11.52-6.48c4.32-1.39,8.73-2.09,13.25-2.09c5.09,0,9.72,0.77,13.9,2.3c4.18,1.54,7.78,3.65,10.8,6.34
		c3.02,2.69,5.37,5.9,7.06,9.65c1.68,3.74,2.52,7.82,2.52,12.24c0,3.26-0.91,5.76-2.74,7.49c-1.83,1.73-4.37,2.83-7.63,3.31
		l-35.57,5.33c1.05,3.17,3.21,5.54,6.48,7.13c3.26,1.58,7.01,2.38,11.23,2.38c3.93,0,7.65-0.5,11.16-1.51
		c3.5-1.01,6.36-2.18,8.57-3.53c1.53,0.96,2.83,2.3,3.89,4.03c1.05,1.73,1.58,3.55,1.58,5.47c0,3.35-1.23,6.03-3.66,8.05
		c13.11-5.38,26.15-15.95,37.3-33.36C196.78,105.55,148.1,30.74,148.1,30.74z"/>
	<linearGradient id="SVGID_2_" gradientUnits="userSpaceOnUse" x1="73.6754" y1="164.3785" x2="98.2982" y2="164.3785">
		<stop  offset="0" style="stop-color:#67B14F"/>
		<stop  offset="1" style="stop-color:#00892E"/>
	</linearGradient>
	<path class="st1" d="M95.13,160.92c-1.83-1.92-4.51-2.88-8.06-2.88c-2.3,0-4.3,0.38-5.97,1.15c-1.68,0.77-3.05,1.75-4.1,2.95
		c-1.06,1.2-1.85,2.54-2.38,4.03c-0.53,1.49-0.84,3-0.94,4.54l24.62-4.03C98.01,164.76,96.95,162.84,95.13,160.92z"/>
</g>
<g>
	<path class="st2" d="M211.34,137.61c3.88,0,7.4,0.49,10.56,1.48c3.16,0.99,5.83,2.26,8.01,3.83c1.36,0.95,2.43,2.01,3.21,3.16
		c0.78,1.16,1.17,2.65,1.17,4.49v35.7c0,3.6-0.68,6.71-2.04,9.33c-1.36,2.62-3.21,4.79-5.56,6.53c-2.35,1.73-5.1,3.01-8.26,3.83
		c-3.16,0.82-6.55,1.22-10.15,1.22c-6.19,0-11.05-0.83-14.59-2.5c-3.54-1.67-5.3-4.37-5.3-8.11c0-1.57,0.32-2.94,0.97-4.13
		c0.65-1.19,1.38-2.09,2.19-2.7c1.97,1.09,4.2,2,6.68,2.75c2.48,0.75,5.05,1.12,7.7,1.12c3.67,0,6.6-0.61,8.77-1.84
		c2.18-1.22,3.26-3.2,3.26-5.92v-1.63c-2.79,1.22-6.19,1.84-10.2,1.84c-3.06,0-5.97-0.46-8.72-1.38c-2.75-0.92-5.17-2.35-7.24-4.28
		c-2.08-1.94-3.74-4.44-5-7.5c-1.26-3.06-1.89-6.7-1.89-10.92c0-4.15,0.66-7.75,1.99-10.81c1.33-3.06,3.16-5.59,5.51-7.6
		c2.35-2.01,5.13-3.5,8.36-4.49C204.01,138.1,207.53,137.61,211.34,137.61z M217.66,152.4c-0.48-0.27-1.17-0.54-2.09-0.82
		c-0.92-0.27-2.06-0.41-3.42-0.41c-3.33,0-5.83,0.94-7.5,2.81c-1.67,1.87-2.5,4.54-2.5,8.01c0,3.95,0.83,6.78,2.5,8.52
		c1.67,1.73,3.79,2.6,6.38,2.6c2.79,0,5-0.65,6.63-1.94V152.4z"/>
	<path class="st2" d="M261.16,188.61c-0.68,0.2-1.75,0.41-3.21,0.61c-1.46,0.2-2.98,0.31-4.54,0.31c-1.5,0-2.84-0.1-4.03-0.31
		c-1.19-0.2-2.19-0.61-3.01-1.22c-0.82-0.61-1.45-1.44-1.89-2.5c-0.44-1.05-0.66-2.43-0.66-4.13v-30.6c0-1.56,0.29-2.91,0.87-4.03
		c0.58-1.12,1.41-2.12,2.5-3.01c1.09-0.88,2.43-1.68,4.03-2.4c1.6-0.71,3.32-1.34,5.15-1.89c1.84-0.54,3.74-0.97,5.71-1.27
		c1.97-0.31,3.94-0.46,5.92-0.46c3.26,0,5.85,0.63,7.75,1.89c1.9,1.26,2.86,3.32,2.86,6.17c0,0.95-0.14,1.89-0.41,2.81
		c-0.27,0.92-0.61,1.75-1.02,2.5c-1.43,0-2.89,0.07-4.39,0.2c-1.5,0.14-2.96,0.34-4.39,0.61c-1.43,0.27-2.77,0.56-4.03,0.87
		c-1.26,0.31-2.33,0.66-3.21,1.07V188.61z"/>
	<path class="st2" d="M309.64,190.34c-4.01,0-7.74-0.56-11.17-1.68c-3.44-1.12-6.43-2.81-8.98-5.05c-2.55-2.24-4.56-5.06-6.02-8.47
		c-1.46-3.4-2.19-7.38-2.19-11.93c0-4.49,0.73-8.35,2.19-11.58c1.46-3.23,3.38-5.88,5.76-7.96c2.38-2.07,5.1-3.6,8.16-4.59
		c3.06-0.99,6.19-1.48,9.38-1.48c3.6,0,6.89,0.54,9.84,1.63c2.96,1.09,5.51,2.59,7.65,4.49c2.14,1.91,3.81,4.18,5,6.83
		c1.19,2.65,1.79,5.54,1.79,8.67c0,2.31-0.65,4.08-1.94,5.3c-1.29,1.22-3.1,2.01-5.41,2.35l-25.2,3.77
		c0.75,2.24,2.28,3.93,4.59,5.05c2.31,1.12,4.96,1.68,7.96,1.68c2.79,0,5.42-0.36,7.91-1.07c2.48-0.71,4.5-1.55,6.07-2.5
		c1.09,0.68,2,1.63,2.75,2.86c0.75,1.22,1.12,2.52,1.12,3.88c0,3.06-1.43,5.34-4.28,6.83c-2.18,1.16-4.63,1.94-7.34,2.35
		C314.57,190.14,312.02,190.34,309.64,190.34z M306.78,150.26c-1.63,0-3.04,0.27-4.23,0.82c-1.19,0.54-2.16,1.24-2.91,2.09
		c-0.75,0.85-1.31,1.8-1.68,2.86c-0.37,1.05-0.6,2.13-0.66,3.21l17.44-2.86c-0.2-1.36-0.95-2.72-2.24-4.08
		C311.2,150.94,309.3,150.26,306.78,150.26z"/>
	<path class="st2" d="M364.21,190.34c-4.01,0-7.74-0.56-11.17-1.68c-3.44-1.12-6.43-2.81-8.98-5.05c-2.55-2.24-4.56-5.06-6.02-8.47
		c-1.46-3.4-2.19-7.38-2.19-11.93c0-4.49,0.73-8.35,2.19-11.58c1.46-3.23,3.38-5.88,5.76-7.96c2.38-2.07,5.1-3.6,8.16-4.59
		c3.06-0.99,6.19-1.48,9.38-1.48c3.6,0,6.89,0.54,9.84,1.63c2.96,1.09,5.51,2.59,7.65,4.49c2.14,1.91,3.81,4.18,5,6.83
		c1.19,2.65,1.79,5.54,1.79,8.67c0,2.31-0.65,4.08-1.94,5.3c-1.29,1.22-3.1,2.01-5.41,2.35l-25.2,3.77
		c0.75,2.24,2.28,3.93,4.59,5.05c2.31,1.12,4.96,1.68,7.96,1.68c2.79,0,5.42-0.36,7.91-1.07c2.48-0.71,4.5-1.55,6.07-2.5
		c1.09,0.68,2,1.63,2.75,2.86c0.75,1.22,1.12,2.52,1.12,3.88c0,3.06-1.43,5.34-4.28,6.83c-2.18,1.16-4.63,1.94-7.34,2.35
		C369.14,190.14,366.59,190.34,364.21,190.34z M361.35,150.26c-1.63,0-3.04,0.27-4.23,0.82c-1.19,0.54-2.16,1.24-2.91,2.09
		c-0.75,0.85-1.31,1.8-1.68,2.86c-0.37,1.05-0.6,2.13-0.66,3.21l17.44-2.86c-0.2-1.36-0.95-2.72-2.24-4.08
		C365.77,150.94,363.87,150.26,361.35,150.26z"/>
	<path class="st2" d="M423.96,157.29c0-2.11-0.6-3.66-1.79-4.64c-1.19-0.99-2.8-1.48-4.84-1.48c-1.36,0-2.7,0.17-4.03,0.51
		c-1.33,0.34-2.47,0.85-3.42,1.53v35.4c-0.68,0.2-1.75,0.41-3.21,0.61c-1.46,0.2-2.98,0.31-4.54,0.31c-1.5,0-2.84-0.1-4.03-0.31
		c-1.19-0.2-2.19-0.61-3.01-1.22s-1.45-1.44-1.89-2.5c-0.44-1.05-0.66-2.43-0.66-4.13v-30.6c0-1.84,0.39-3.33,1.17-4.49
		c0.78-1.16,1.85-2.21,3.21-3.16c2.31-1.63,5.22-2.96,8.72-3.98c3.5-1.02,7.4-1.53,11.68-1.53c7.68,0,13.6,1.68,17.75,5.05
		c4.15,3.37,6.22,8.04,6.22,14.03v31.93c-0.68,0.2-1.75,0.41-3.21,0.61c-1.46,0.2-2.98,0.31-4.54,0.31c-1.5,0-2.84-0.1-4.03-0.31
		c-1.19-0.2-2.19-0.61-3.01-1.22c-0.82-0.61-1.45-1.44-1.89-2.5c-0.44-1.05-0.66-2.43-0.66-4.13V157.29z"/>
	<path class="st2" d="M476.67,190.34c-4.01,0-7.74-0.56-11.17-1.68c-3.43-1.12-6.43-2.81-8.98-5.05c-2.55-2.24-4.56-5.06-6.02-8.47
		c-1.46-3.4-2.19-7.38-2.19-11.93c0-4.49,0.73-8.35,2.19-11.58c1.46-3.23,3.38-5.88,5.76-7.96c2.38-2.07,5.1-3.6,8.16-4.59
		c3.06-0.99,6.19-1.48,9.38-1.48c3.6,0,6.89,0.54,9.84,1.63c2.96,1.09,5.51,2.59,7.65,4.49c2.14,1.91,3.81,4.18,5,6.83
		c1.19,2.65,1.79,5.54,1.79,8.67c0,2.31-0.65,4.08-1.94,5.3c-1.29,1.22-3.09,2.01-5.41,2.35l-25.19,3.77
		c0.75,2.24,2.28,3.93,4.59,5.05c2.31,1.12,4.96,1.68,7.96,1.68c2.79,0,5.42-0.36,7.91-1.07s4.5-1.55,6.07-2.5
		c1.09,0.68,2,1.63,2.75,2.86c0.75,1.22,1.12,2.52,1.12,3.88c0,3.06-1.43,5.34-4.29,6.83c-2.18,1.16-4.62,1.94-7.34,2.35
		C481.6,190.14,479.05,190.34,476.67,190.34z M473.81,150.26c-1.63,0-3.04,0.27-4.23,0.82c-1.19,0.54-2.16,1.24-2.91,2.09
		c-0.75,0.85-1.31,1.8-1.68,2.86c-0.37,1.05-0.6,2.13-0.66,3.21l17.44-2.86c-0.2-1.36-0.95-2.72-2.24-4.08
		C478.23,150.94,476.33,150.26,473.81,150.26z"/>
	<path class="st2" d="M522.35,188.61c-0.68,0.2-1.75,0.41-3.21,0.61c-1.46,0.2-2.98,0.31-4.54,0.31c-1.5,0-2.84-0.1-4.03-0.31
		c-1.19-0.2-2.19-0.61-3.01-1.22c-0.82-0.61-1.45-1.44-1.89-2.5c-0.44-1.05-0.66-2.43-0.66-4.13v-30.6c0-1.56,0.29-2.91,0.87-4.03
		c0.58-1.12,1.41-2.12,2.5-3.01c1.09-0.88,2.43-1.68,4.03-2.4c1.6-0.71,3.32-1.34,5.15-1.89c1.84-0.54,3.74-0.97,5.71-1.27
		c1.97-0.31,3.94-0.46,5.92-0.46c3.26,0,5.85,0.63,7.75,1.89c1.9,1.26,2.86,3.32,2.86,6.17c0,0.95-0.14,1.89-0.41,2.81
		c-0.27,0.92-0.61,1.75-1.02,2.5c-1.43,0-2.89,0.07-4.39,0.2c-1.5,0.14-2.96,0.34-4.39,0.61c-1.43,0.27-2.77,0.56-4.03,0.87
		c-1.26,0.31-2.33,0.66-3.21,1.07V188.61z"/>
</g>
<g>
	<path class="st2" d="M245.81,205.74c-0.02,0.37,0,0.73,0.11,0.99c0.13,0.26,0.37,0.39,0.83,0.39c0.45,0,0.84-0.29,0.84-0.84
		c0-1.74-4.03-1.35-4.03-3.96c0-1.77,1.75-2.3,3.23-2.3c1.56,0,2.97,0.75,2.84,2.52h-2.24c0-0.57-0.06-0.91-0.23-1.06
		c-0.15-0.15-0.34-0.18-0.58-0.18c-0.5,0-0.78,0.33-0.78,0.88c0,1.3,4.03,1.23,4.03,3.86c0,1.43-1.17,2.5-3.07,2.5
		c-2,0-3.33-0.5-3.2-2.79H245.81z"/>
	<path class="st2" d="M251.08,204.17c0-2.24,0.32-4.16,3.34-4.16s3.34,1.92,3.34,4.16c0,2.56-0.39,4.37-3.34,4.37
		C251.47,208.53,251.08,206.73,251.08,204.17z M255.48,204.04c0-1.7-0.08-2.56-1.05-2.56s-1.06,0.86-1.06,2.56
		c0,2.5,0.21,3.04,1.06,3.04C255.26,207.07,255.48,206.54,255.48,204.04z"/>
	<path class="st2" d="M263.08,198.06c-0.93-0.07-1.12,0.29-1.12,1.12v0.99h1.07v1.41h-1.07v6.78h-2.29v-6.78h-1.02v-1.41h1.04
		c-0.02-2.35-0.21-3.6,2.58-3.6c0.28,0,0.54,0.02,0.81,0.03V198.06z"/>
	<path class="st2" d="M263.77,200.17h0.93v-1.3l2.29-1.02v2.32h1.18v1.41h-1.18v4.38c0,0.62-0.02,1.02,0.73,1.02
		c0.15,0,0.29,0,0.41-0.03v1.41c-0.31,0.03-0.63,0.08-1.19,0.08c-1.98,0-2.24-1.31-2.24-1.82v-5.05h-0.93V200.17z"/>
	<path class="st2" d="M269,200.17h2.27l1.12,6.17h0.03l1.57-6.17h2.37l1.44,6.17h0.03l1.23-6.17h2.19l-2.22,8.2h-2.4l-1.48-5.6
		h-0.03l-1.66,5.6h-2.44L269,200.17z"/>
	<path class="st2" d="M288.54,206.85c0,0.5,0.06,1.02,0.11,1.53h-2.13l-0.1-1.09h-0.03c-0.49,0.84-1.15,1.25-2.14,1.25
		c-1.59,0-2.17-1.18-2.17-2.61c0-2.71,2.09-2.82,4.22-2.79v-0.63c0-0.7-0.1-1.2-0.93-1.2c-0.8,0-0.86,0.6-0.86,1.25h-2.24
		c0-0.99,0.31-1.62,0.84-2c0.52-0.39,1.27-0.54,2.14-0.54c2.9,0,3.28,1.25,3.28,2.74V206.85z M284.32,205.82
		c0,0.58,0.1,1.3,0.84,1.3c1.35,0,1.14-1.82,1.14-2.71C285.16,204.46,284.32,204.36,284.32,205.82z"/>
	<path class="st2" d="M292.53,200.17v1.06h0.03c0.42-0.94,1.2-1.22,2.13-1.22v2.04c-2.01-0.13-2.04,1.04-2.04,1.85v4.46h-2.29v-8.2
		H292.53z"/>
	<path class="st2" d="M298.02,204.64c0,0.97,0.03,2.44,1.04,2.44c0.81,0,0.97-0.78,0.97-1.46h2.32c-0.03,0.89-0.33,1.62-0.88,2.13
		c-0.54,0.5-1.35,0.79-2.42,0.79c-2.95,0-3.34-1.8-3.34-4.37c0-2.24,0.32-4.16,3.34-4.16c3.08,0,3.42,2,3.34,4.63H298.02z
		 M300.12,203.36c0-0.8,0.03-1.93-1.05-1.93c-1.06,0-1.04,1.23-1.04,1.93H300.12z"/>
	<path class="st2" d="M311.15,198.06c-0.93-0.07-1.12,0.29-1.12,1.12v0.99h1.07v1.41h-1.07v6.78h-2.29v-6.78h-1.02v-1.41h1.04
		c-0.02-2.35-0.21-3.6,2.58-3.6c0.28,0,0.54,0.02,0.81,0.03V198.06z"/>
	<path class="st2" d="M312.05,204.17c0-2.24,0.32-4.16,3.34-4.16c3.02,0,3.34,1.92,3.34,4.16c0,2.56-0.39,4.37-3.34,4.37
		C312.44,208.53,312.05,206.73,312.05,204.17z M316.45,204.04c0-1.7-0.08-2.56-1.05-2.56c-0.97,0-1.06,0.86-1.06,2.56
		c0,2.5,0.21,3.04,1.06,3.04C316.24,207.07,316.45,206.54,316.45,204.04z"/>
	<path class="st2" d="M322.49,200.17v1.06h0.03c0.42-0.94,1.2-1.22,2.13-1.22v2.04c-2.01-0.13-2.04,1.04-2.04,1.85v4.46h-2.29v-8.2
		H322.49z"/>
	<path class="st2" d="M331.13,205.74c-0.02,0.37,0,0.73,0.11,0.99c0.13,0.26,0.37,0.39,0.83,0.39c0.45,0,0.84-0.29,0.84-0.84
		c0-1.74-4.03-1.35-4.03-3.96c0-1.77,1.75-2.3,3.23-2.3c1.56,0,2.97,0.75,2.84,2.52h-2.24c0-0.57-0.06-0.91-0.23-1.06
		c-0.15-0.15-0.34-0.18-0.58-0.18c-0.5,0-0.78,0.33-0.78,0.88c0,1.3,4.03,1.23,4.03,3.86c0,1.43-1.17,2.5-3.07,2.5
		c-2,0-3.33-0.5-3.2-2.79H331.13z"/>
	<path class="st2" d="M340.53,207.54h-0.03c-0.23,0.36-0.49,0.62-0.81,0.76c-0.32,0.16-0.68,0.23-1.12,0.23
		c-1.09,0-2.05-0.65-2.05-1.79v-6.57h2.29v5.68c0,0.73,0.13,1.27,0.86,1.27c0.73,0,0.86-0.54,0.86-1.27v-5.68h2.29v6.57
		c0,0.54,0.03,1.09,0.08,1.62h-2.37V207.54z"/>
	<path class="st2" d="M346.51,205.74c-0.02,0.37,0,0.73,0.11,0.99c0.13,0.26,0.37,0.39,0.83,0.39c0.45,0,0.84-0.29,0.84-0.84
		c0-1.74-4.03-1.35-4.03-3.96c0-1.77,1.75-2.3,3.23-2.3c1.56,0,2.97,0.75,2.84,2.52h-2.24c0-0.57-0.06-0.91-0.23-1.06
		c-0.15-0.15-0.34-0.18-0.58-0.18c-0.5,0-0.78,0.33-0.78,0.88c0,1.3,4.03,1.23,4.03,3.86c0,1.43-1.17,2.5-3.07,2.5
		c-2,0-3.33-0.5-3.2-2.79H346.51z"/>
	<path class="st2" d="M351.32,200.17h0.93v-1.3l2.29-1.02v2.32h1.18v1.41h-1.18v4.38c0,0.62-0.02,1.02,0.73,1.02
		c0.15,0,0.29,0,0.41-0.03v1.41c-0.31,0.03-0.63,0.08-1.19,0.08c-1.98,0-2.24-1.31-2.24-1.82v-5.05h-0.93V200.17z"/>
	<path class="st2" d="M363.18,206.85c0,0.5,0.06,1.02,0.11,1.53h-2.13l-0.1-1.09h-0.03c-0.49,0.84-1.15,1.25-2.14,1.25
		c-1.59,0-2.17-1.18-2.17-2.61c0-2.71,2.09-2.82,4.22-2.79v-0.63c0-0.7-0.1-1.2-0.93-1.2c-0.8,0-0.86,0.6-0.86,1.25h-2.24
		c0-0.99,0.31-1.62,0.84-2c0.52-0.39,1.27-0.54,2.14-0.54c2.91,0,3.28,1.25,3.28,2.74V206.85z M358.96,205.82
		c0,0.58,0.1,1.3,0.84,1.3c1.35,0,1.14-1.82,1.14-2.71C359.81,204.46,358.96,204.36,358.96,205.82z"/>
	<path class="st2" d="M367.39,196.65v1.8h-2.29v-1.8H367.39z M367.39,208.37h-2.29v-8.2h2.29V208.37z"/>
	<path class="st2" d="M371.56,201h0.03c0.23-0.37,0.5-0.62,0.81-0.76c0.32-0.16,0.7-0.23,1.12-0.23c1.09,0,2.04,0.65,2.04,1.79v6.57
		h-2.29v-5.65c0-0.73-0.13-1.3-0.86-1.3c-0.73,0-0.86,0.57-0.86,1.3v5.65h-2.29v-8.2h2.29V201z"/>
	<path class="st2" d="M383.54,206.85c0,0.5,0.06,1.02,0.11,1.53h-2.13l-0.1-1.09h-0.03c-0.49,0.84-1.15,1.25-2.14,1.25
		c-1.59,0-2.17-1.18-2.17-2.61c0-2.71,2.09-2.82,4.22-2.79v-0.63c0-0.7-0.1-1.2-0.93-1.2c-0.8,0-0.86,0.6-0.86,1.25h-2.24
		c0-0.99,0.31-1.62,0.84-2c0.52-0.39,1.27-0.54,2.14-0.54c2.91,0,3.28,1.25,3.28,2.74V206.85z M379.32,205.82
		c0,0.58,0.1,1.3,0.84,1.3c1.35,0,1.14-1.82,1.14-2.71C380.16,204.46,379.32,204.36,379.32,205.82z"/>
	<path class="st2" d="M385.35,196.65h2.29v4.3h0.03c0.47-0.7,1.04-0.94,1.87-0.94c2.3,0,2.24,2.55,2.24,4.2
		c0,1.69,0.08,4.32-2.29,4.32c-0.88,0-1.51-0.28-1.93-1.07h-0.03v0.91h-2.18V196.65z M389.54,204.2c0-1.64,0.02-2.78-0.97-2.78
		c-0.94,0-0.93,1.14-0.93,2.78c0,2.06,0.15,2.92,0.93,2.92C389.4,207.12,389.54,206.26,389.54,204.2z"/>
	<path class="st2" d="M395.82,196.65v11.72h-2.29v-11.72H395.82z"/>
	<path class="st2" d="M399.82,204.64c0,0.97,0.03,2.44,1.04,2.44c0.81,0,0.97-0.78,0.97-1.46h2.32c-0.03,0.89-0.33,1.62-0.88,2.13
		c-0.54,0.5-1.35,0.79-2.42,0.79c-2.95,0-3.34-1.8-3.34-4.37c0-2.24,0.32-4.16,3.34-4.16c3.08,0,3.42,2,3.34,4.63H399.82z
		 M401.91,203.36c0-0.8,0.03-1.93-1.05-1.93c-1.06,0-1.04,1.23-1.04,1.93H401.91z"/>
	<path class="st2" d="M409.43,196.65h2.29v4.3h0.03c0.47-0.7,1.04-0.94,1.87-0.94c2.3,0,2.24,2.55,2.24,4.2
		c0,1.69,0.08,4.32-2.29,4.32c-0.88,0-1.51-0.28-1.93-1.07h-0.03v0.91h-2.18V196.65z M413.62,204.2c0-1.64,0.02-2.78-0.97-2.78
		c-0.94,0-0.93,1.14-0.93,2.78c0,2.06,0.15,2.92,0.93,2.92C413.47,207.12,413.62,206.26,413.62,204.2z"/>
	<path class="st2" d="M421.5,207.54h-0.03c-0.23,0.36-0.49,0.62-0.81,0.76c-0.32,0.16-0.68,0.23-1.12,0.23
		c-1.09,0-2.05-0.65-2.05-1.79v-6.57h2.29v5.68c0,0.73,0.13,1.27,0.86,1.27c0.73,0,0.86-0.54,0.86-1.27v-5.68h2.29v6.57
		c0,0.54,0.03,1.09,0.08,1.62h-2.37V207.54z"/>
	<path class="st2" d="M427.99,196.65v1.8h-2.29v-1.8H427.99z M427.99,208.37h-2.29v-8.2h2.29V208.37z"/>
	<path class="st2" d="M432.25,196.65v11.72h-2.29v-11.72H432.25z"/>
	<path class="st2" d="M438.23,208.37v-0.91h-0.03c-0.42,0.79-1.06,1.07-1.93,1.07c-2.37,0-2.29-2.63-2.29-4.32
		c0-1.66-0.06-4.2,2.24-4.2c0.83,0,1.4,0.24,1.87,0.94h0.03v-4.3h2.29v11.72H438.23z M438.11,204.2c0-1.64,0.02-2.78-0.93-2.78
		c-0.99,0-0.97,1.14-0.97,2.78c0,2.06,0.15,2.92,0.97,2.92C437.97,207.12,438.11,206.26,438.11,204.2z"/>
	<path class="st2" d="M444.6,196.65v1.8h-2.29v-1.8H444.6z M444.6,208.37h-2.29v-8.2h2.29V208.37z"/>
	<path class="st2" d="M448.77,201h0.03c0.23-0.37,0.5-0.62,0.81-0.76c0.32-0.16,0.7-0.23,1.12-0.23c1.09,0,2.04,0.65,2.04,1.79v6.57
		h-2.29v-5.65c0-0.73-0.13-1.3-0.86-1.3c-0.73,0-0.86,0.57-0.86,1.3v5.65h-2.29v-8.2h2.29V201z"/>
	<path class="st2" d="M460.83,200.17v8.54c0,0.57,0.03,2.81-3.12,2.81c-1.7,0-3.16-0.44-3.21-2.43h2.24c0,0.34,0.05,0.63,0.19,0.83
		c0.15,0.21,0.41,0.32,0.76,0.32c0.57,0,0.84-0.54,0.84-1.36v-1.57h-0.03c-0.34,0.63-0.99,0.96-1.74,0.96c-2.52,0-2.4-2.3-2.4-4.16
		c0-1.8,0.03-4.09,2.42-4.09c0.81,0,1.51,0.36,1.83,1.12h0.03v-0.96H460.83z M457.6,206.85c0.83,0,0.94-0.86,0.94-2.6
		c0-1.8-0.08-2.82-0.93-2.82c-0.86,0-1.01,0.6-1.01,3.1C456.61,205.29,456.5,206.85,457.6,206.85z"/>
	<path class="st2" d="M472.5,206.85c0,0.5,0.06,1.02,0.11,1.53h-2.13l-0.1-1.09h-0.03c-0.49,0.84-1.15,1.25-2.14,1.25
		c-1.59,0-2.17-1.18-2.17-2.61c0-2.71,2.09-2.82,4.22-2.79v-0.63c0-0.7-0.1-1.2-0.93-1.2c-0.8,0-0.86,0.6-0.86,1.25h-2.24
		c0-0.99,0.31-1.62,0.84-2c0.52-0.39,1.27-0.54,2.14-0.54c2.9,0,3.28,1.25,3.28,2.74V206.85z M468.28,205.82
		c0,0.58,0.1,1.3,0.84,1.3c1.35,0,1.14-1.82,1.14-2.71C469.13,204.46,468.28,204.36,468.28,205.82z"/>
	<path class="st2" d="M478.31,207.54h-0.03c-0.23,0.36-0.49,0.62-0.81,0.76c-0.32,0.16-0.68,0.23-1.12,0.23
		c-1.09,0-2.05-0.65-2.05-1.79v-6.57h2.29v5.68c0,0.73,0.13,1.27,0.86,1.27c0.73,0,0.86-0.54,0.86-1.27v-5.68h2.29v6.57
		c0,0.54,0.03,1.09,0.08,1.62h-2.37V207.54z"/>
	<path class="st2" d="M481.74,200.17h0.93v-1.3l2.29-1.02v2.32h1.18v1.41h-1.18v4.38c0,0.62-0.02,1.02,0.73,1.02
		c0.15,0,0.29,0,0.41-0.03v1.41c-0.31,0.03-0.63,0.08-1.19,0.08c-1.98,0-2.24-1.31-2.24-1.82v-5.05h-0.93V200.17z"/>
	<path class="st2" d="M487.08,204.17c0-2.24,0.32-4.16,3.34-4.16c3.02,0,3.34,1.92,3.34,4.16c0,2.56-0.39,4.37-3.34,4.37
		S487.08,206.73,487.08,204.17z M491.48,204.04c0-1.7-0.08-2.56-1.05-2.56s-1.06,0.86-1.06,2.56c0,2.5,0.21,3.04,1.06,3.04
		C491.27,207.07,491.48,206.54,491.48,204.04z"/>
	<path class="st2" d="M497.55,201h0.03c0.45-0.73,1.07-0.99,1.93-0.99c0.81,0,1.46,0.39,1.83,1.04c0.54-0.71,1.19-1.04,2.13-1.04
		c1.09,0,2.05,0.65,2.05,1.79v6.57h-2.29v-5.65c0-0.73-0.13-1.3-0.86-1.3c-0.73,0-0.86,0.57-0.86,1.3v5.65h-2.24v-5.65
		c0-0.73-0.13-1.3-0.86-1.3c-0.73,0-0.86,0.57-0.86,1.3v5.65h-2.29v-8.2h2.29V201z"/>
	<path class="st2" d="M513.42,206.85c0,0.5,0.06,1.02,0.11,1.53h-2.13l-0.1-1.09h-0.03c-0.49,0.84-1.15,1.25-2.14,1.25
		c-1.59,0-2.17-1.18-2.17-2.61c0-2.71,2.09-2.82,4.22-2.79v-0.63c0-0.7-0.1-1.2-0.93-1.2c-0.8,0-0.86,0.6-0.86,1.25h-2.24
		c0-0.99,0.31-1.62,0.84-2c0.52-0.39,1.27-0.54,2.14-0.54c2.9,0,3.28,1.25,3.28,2.74V206.85z M509.2,205.82c0,0.58,0.1,1.3,0.84,1.3
		c1.35,0,1.14-1.82,1.14-2.71C510.04,204.46,509.2,204.36,509.2,205.82z"/>
	<path class="st2" d="M514.55,200.17h0.93v-1.3l2.29-1.02v2.32h1.18v1.41h-1.18v4.38c0,0.62-0.02,1.02,0.73,1.02
		c0.15,0,0.29,0,0.41-0.03v1.41c-0.31,0.03-0.63,0.08-1.19,0.08c-1.98,0-2.24-1.31-2.24-1.82v-5.05h-0.93V200.17z"/>
	<path class="st2" d="M522.52,196.65v1.8h-2.29v-1.8H522.52z M522.52,208.37h-2.29v-8.2h2.29V208.37z"/>
	<path class="st2" d="M524.22,204.17c0-2.24,0.32-4.16,3.34-4.16s3.34,1.92,3.34,4.16c0,2.56-0.39,4.37-3.34,4.37
		S524.22,206.73,524.22,204.17z M528.61,204.04c0-1.7-0.08-2.56-1.05-2.56s-1.06,0.86-1.06,2.56c0,2.5,0.21,3.04,1.06,3.04
		C528.4,207.07,528.61,206.54,528.61,204.04z"/>
	<path class="st2" d="M534.78,201h0.03c0.23-0.37,0.5-0.62,0.81-0.76c0.32-0.16,0.7-0.23,1.12-0.23c1.09,0,2.04,0.65,2.04,1.79v6.57
		h-2.29v-5.65c0-0.73-0.13-1.3-0.86-1.3c-0.73,0-0.86,0.57-0.86,1.3v5.65h-2.29v-8.2h2.29V201z"/>
</g>
</svg>
