<?xml version="1.0" encoding="utf-8"?>
<!-- Generator: Adobe Illustrator 25.1.0, SVG Export Plug-In . SVG Version: 6.00 Build 0)  -->
<svg version="1.1" id="Ebene_1" xmlns="http://www.w3.org/2000/svg" xmlns:xlink="http://www.w3.org/1999/xlink" x="0px" y="0px"
	 viewBox="0 0 128.8 128.8" style="enable-background:new 0 0 128.8 128.8;" xml:space="preserve">
<style type="text/css">
	.st0{clip-path:url(#SVGID_2_);fill:#031F1D;}
	.st1{clip-path:url(#SVGID_2_);fill:none;stroke:#FFFFFF;stroke-width:2;}
	.st2{clip-path:url(#SVGID_4_);fill:url(#SVGID_5_);}
	.st3{clip-path:url(#SVGID_7_);fill:url(#SVGID_8_);}
	.st4{clip-path:url(#SVGID_10_);fill:url(#SVGID_11_);}
	.st5{clip-path:url(#SVGID_13_);fill:url(#SVGID_14_);}
	.st6{clip-path:url(#SVGID_16_);fill:url(#SVGID_17_);}
	.st7{clip-path:url(#SVGID_19_);fill:url(#SVGID_20_);}
	.st8{clip-path:url(#SVGID_22_);fill:url(#SVGID_23_);}
</style>
<g>
	<defs>
		<rect id="SVGID_1_" x="14.8" y="14.6" width="99.6" height="99.6"/>
	</defs>
	<clipPath id="SVGID_2_">
		<use xlink:href="#SVGID_1_"  style="overflow:visible;"/>
	</clipPath>
	<path class="st0" d="M64.6,113.2c27,0,48.8-21.9,48.8-48.8S91.6,15.6,64.6,15.6S15.8,37.4,15.8,64.4S37.7,113.2,64.6,113.2"/>
	<circle class="st1" cx="64.6" cy="64.4" r="48.8"/>
</g>
<g>
	<defs>
		<path id="SVGID_3_" d="M64.6,85.7c0,0,0.1,0,0.1,0c0.6-0.1,1.1-0.5,1.2-1.1c0-0.1,0-0.3,0-0.4c0-1.2,0-2.4,0-3.6l0-1.7h7l2.9,13.9
			l-0.1,0.1c0,0,0,0.1-0.1,0.1c-0.1,0.1-0.1,0.1-0.2,0.1l0,0c0,0-0.1,0-0.1,0c-7.2,0-14.3,0-21.5,0c-0.1,0-0.1,0-0.2,0c0,0,0,0,0,0
			L53.4,93l3-14.1h7v1.8c0,1.2,0,2.4,0,3.6c0,0.2,0,0.4,0.1,0.5C63.6,85.3,64.1,85.7,64.6,85.7C64.6,85.7,64.6,85.7,64.6,85.7
			 M61.6,52c0-0.8,0.3-1.6,0.9-2.1c0.6-0.6,1.3-0.9,2.1-0.9h0c0.8,0,1.6,0.3,2.1,0.9c0.6,0.6,0.9,1.3,0.9,2.1c0,1.6-1.4,3-3,3
			C63,55,61.6,53.7,61.6,52 M59.2,50.6c-0.3,1.3-0.3,2.5,0.3,3.7c0.7,1.6,1.9,2.6,3.6,3.2l0.2,0.1v19.3h-8.7c0,0-2.1,9.7-2.1,9.7
			c-0.5,2.6-1.1,5.2-1.6,7.7c-0.1,0.3-0.1,0.7-0.2,1c0,0,0,0.1,0,0.1h27.8c-0.4-1.8-0.8-3.7-1.2-5.5l-2.6-12.4
			c0-0.2-0.1-0.4-0.1-0.6l0-0.1h-8.7V57.5l0.2-0.1c2.7-0.8,4.4-3.4,4-6.2c-0.4-2.6-2.5-4.6-5.2-4.8c-0.1,0-0.2,0-0.4,0
			C62.1,46.4,59.9,48.1,59.2,50.6"/>
	</defs>
	<clipPath id="SVGID_4_">
		<use xlink:href="#SVGID_3_"  style="overflow:visible;"/>
	</clipPath>
	
		<linearGradient id="SVGID_5_" gradientUnits="userSpaceOnUse" x1="-342.6657" y1="372.0744" x2="-341.6657" y2="372.0744" gradientTransform="matrix(27.8086 0 0 -27.8086 9579.7725 10417.7158)">
		<stop  offset="0" style="stop-color:#62B453"/>
		<stop  offset="1" style="stop-color:#008E36"/>
	</linearGradient>
	<rect x="50.7" y="46.4" class="st2" width="27.8" height="48.9"/>
</g>
<g>
	<defs>
		<path id="SVGID_6_" d="M82.9,33.5c-0.7,0-1.2,0.6-1.2,1.2c0,0.4,0.1,0.7,0.4,1c1,1,1.9,2,2.7,3.1c2.6,3.7,4.1,7.7,4.4,12.1
			c0.2,2.7-0.1,5.3-0.9,7.9c-1.1,3.8-3.2,7.1-6,10.1l-0.1,0.1c-0.1,0.1-0.1,0.1-0.2,0.2c-0.3,0.3-0.4,0.8-0.3,1.2
			c0.1,0.4,0.4,0.7,0.8,0.9c0.2,0.1,0.3,0.1,0.5,0.1c0.3,0,0.6-0.1,0.9-0.4c1.3-1.3,2.5-2.7,3.4-4.2c2.8-4.3,4.3-8.8,4.5-13.6
			c0-0.1,0-0.2,0-0.3c0,0,0-0.1,0-0.1v-0.8c0,0,0-0.1,0-0.1c0-0.1,0-0.2,0-0.3c0-0.1,0-0.3,0-0.4c0-0.3,0-0.5,0-0.7
			c-0.1-1.5-0.4-2.9-0.7-4.3c-1.2-4.6-3.6-8.8-7.2-12.3C83.7,33.6,83.4,33.5,82.9,33.5C83,33.5,82.9,33.5,82.9,33.5"/>
	</defs>
	<clipPath id="SVGID_7_">
		<use xlink:href="#SVGID_6_"  style="overflow:visible;"/>
	</clipPath>
	
		<linearGradient id="SVGID_8_" gradientUnits="userSpaceOnUse" x1="-319.5188" y1="388.5438" x2="-318.5188" y2="388.5438" gradientTransform="matrix(10.1643 0 0 -10.1643 3329.4006 4001.7463)">
		<stop  offset="0" style="stop-color:#62B453"/>
		<stop  offset="1" style="stop-color:#008E36"/>
	</linearGradient>
	<rect x="81.6" y="33.5" class="st3" width="10.2" height="37.9"/>
</g>
<g>
	<defs>
		<path id="SVGID_9_" d="M45.3,33.9c-1.2,1.2-2.3,2.6-3.2,3.9c-3.1,4.5-4.7,9.4-4.7,14.8c0,0.1,0,0.3,0,0.5c0,0.4,0,0.8,0.1,1.3
			c0.1,1.5,0.4,3.1,0.8,4.7c1.1,3.8,3,7.4,5.7,10.5c0.4,0.5,0.9,1,1.4,1.5c0.2,0.2,0.5,0.4,0.9,0.4c0.2,0,0.4-0.1,0.6-0.2
			c0.5-0.3,0.8-0.8,0.7-1.3c0-0.3-0.2-0.5-0.4-0.8c-0.8-0.8-1.6-1.7-2.3-2.6c-3-3.9-4.6-8.3-4.8-13.1c-0.1-2.3,0.1-4.5,0.7-6.8
			c1-3.7,2.8-7.1,5.5-10c0.2-0.2,0.3-0.3,0.5-0.5c0.1-0.1,0.3-0.3,0.4-0.4c0.3-0.3,0.4-0.8,0.3-1.2c-0.1-0.4-0.5-0.8-0.9-0.9
			c-0.1,0-0.3-0.1-0.4-0.1C45.9,33.5,45.6,33.6,45.3,33.9"/>
	</defs>
	<clipPath id="SVGID_10_">
		<use xlink:href="#SVGID_9_"  style="overflow:visible;"/>
	</clipPath>
	
		<linearGradient id="SVGID_11_" gradientUnits="userSpaceOnUse" x1="-319.5331" y1="388.5338" x2="-318.5331" y2="388.5338" gradientTransform="matrix(10.1683 0 0 -10.1683 3286.5151 4003.1899)">
		<stop  offset="0" style="stop-color:#62B453"/>
		<stop  offset="1" style="stop-color:#008E36"/>
	</linearGradient>
	<rect x="37.4" y="33.5" class="st4" width="10.2" height="37.9"/>
</g>
<g>
	<defs>
		<path id="SVGID_12_" d="M76.9,39.3c-0.1,0.5,0,0.9,0.4,1.3c3.8,4,5.4,8.8,4.6,14.2c-0.4,2.8-1.5,5.5-3.3,7.8
			c-0.4,0.5-0.8,0.9-1.1,1.3c-0.1,0.1-0.2,0.2-0.3,0.3c-0.5,0.5-0.5,1.3,0,1.8c0.2,0.2,0.6,0.4,0.9,0.4c0.3,0,0.7-0.1,0.9-0.4
			c0.1-0.1,0.1-0.1,0.2-0.2c3.5-3.7,5.4-8.2,5.5-13.5c0-1.1-0.1-2.3-0.3-3.3c-0.6-3.4-2-6.4-4.2-9c-0.4-0.5-0.8-1-1.2-1.3
			c-0.2-0.2-0.6-0.4-0.9-0.4C77.6,38.4,77,38.7,76.9,39.3"/>
	</defs>
	<clipPath id="SVGID_13_">
		<use xlink:href="#SVGID_12_"  style="overflow:visible;"/>
	</clipPath>
	
		<linearGradient id="SVGID_14_" gradientUnits="userSpaceOnUse" x1="-308.9032" y1="395.5693" x2="-307.9032" y2="395.5693" gradientTransform="matrix(7.8733 0 0 -7.8733 2508.9185 3166.8799)">
		<stop  offset="0" style="stop-color:#62B453"/>
		<stop  offset="1" style="stop-color:#008E36"/>
	</linearGradient>
	<rect x="76.7" y="38.4" class="st5" width="8" height="28.2"/>
</g>
<g>
	<defs>
		<path id="SVGID_15_" d="M50.2,38.8c-3.6,3.7-5.5,8.3-5.6,13.6c0,1.1,0.1,2.2,0.3,3.2c0.6,3.4,2,6.5,4.1,9.1c0.4,0.5,0.8,1,1.4,1.5
			c0.2,0.2,0.5,0.3,0.9,0.3c0.2,0,0.5-0.1,0.7-0.2c0.5-0.3,0.7-0.9,0.6-1.4c-0.1-0.2-0.2-0.4-0.4-0.7c-3.8-3.9-5.5-9.5-4.5-14.9
			c0.6-3.3,2.1-6.2,4.5-8.6l0,0c0.1-0.1,0.2-0.2,0.2-0.2c0.3-0.4,0.3-0.9,0.1-1.3c-0.2-0.5-0.6-0.7-1.1-0.7c0,0,0,0,0,0
			C50.8,38.4,50.5,38.5,50.2,38.8"/>
	</defs>
	<clipPath id="SVGID_16_">
		<use xlink:href="#SVGID_15_"  style="overflow:visible;"/>
	</clipPath>
	
		<linearGradient id="SVGID_17_" gradientUnits="userSpaceOnUse" x1="-308.9578" y1="395.5305" x2="-307.9578" y2="395.5305" gradientTransform="matrix(7.8824 0 0 -7.8824 2479.9075 3170.1992)">
		<stop  offset="0" style="stop-color:#62B453"/>
		<stop  offset="1" style="stop-color:#008E36"/>
	</linearGradient>
	<rect x="44.6" y="38.4" class="st6" width="8" height="28.2"/>
</g>
<g>
	<defs>
		<path id="SVGID_18_" d="M55.8,43.3c-0.3,0.1-0.5,0.2-0.8,0.4c-2.3,2.4-3.5,5.3-3.6,8.8l0,0.2c0,0.2,0,0.5,0,0.7c0,0.1,0,0.2,0,0.3
			l0,0.1c0.2,2.2,1,4.2,2.3,6c0.3,0.5,0.7,0.9,1.2,1.4c0.3,0.3,0.6,0.4,0.9,0.4c0.3,0,0.7-0.1,0.9-0.4c0.5-0.5,0.5-1.3,0-1.8
			c0,0,0,0-0.1-0.1c0,0-0.1-0.1-0.1-0.1c-2.1-2.3-3-5-2.7-8.1c0.3-2.1,1.2-4,2.7-5.6l0,0c0.1-0.1,0.1-0.1,0.2-0.2
			c0.3-0.4,0.4-1,0.1-1.5c-0.2-0.4-0.6-0.6-1.1-0.6C55.9,43.2,55.9,43.3,55.8,43.3"/>
	</defs>
	<clipPath id="SVGID_19_">
		<use xlink:href="#SVGID_18_"  style="overflow:visible;"/>
	</clipPath>
	
		<linearGradient id="SVGID_20_" gradientUnits="userSpaceOnUse" x1="-292.8546" y1="406.085" x2="-291.8546" y2="406.085" gradientTransform="matrix(5.8723 0 0 -5.8723 1771.1549 2437.0889)">
		<stop  offset="0" style="stop-color:#62B453"/>
		<stop  offset="1" style="stop-color:#008E36"/>
	</linearGradient>
	<rect x="51.4" y="43.2" class="st7" width="6" height="18.4"/>
</g>
<g>
	<defs>
		<path id="SVGID_21_" d="M72.5,43.5C72.2,43.7,72,44,72,44.4c0,0.4,0.1,0.8,0.4,1.1c2.2,2.3,3.1,5,2.8,8.1c-0.2,2.1-1.1,4-2.7,5.7
			l-0.1,0.1c-0.1,0.1-0.1,0.1-0.2,0.2c-0.3,0.4-0.4,1-0.1,1.5c0.2,0.4,0.6,0.6,1.1,0.6c0.1,0,0.2,0,0.3,0c0.3-0.1,0.5-0.2,0.7-0.4
			c2.3-2.4,3.5-5.3,3.6-8.8c0-0.1,0-0.2,0-0.3c0-0.2,0-0.5,0-0.7c-0.1-1.8-0.6-3.4-1.5-5c-0.6-1-1.3-2-2.1-2.8
			c-0.3-0.3-0.6-0.4-0.9-0.4C73,43.2,72.7,43.3,72.5,43.5"/>
	</defs>
	<clipPath id="SVGID_22_">
		<use xlink:href="#SVGID_21_"  style="overflow:visible;"/>
	</clipPath>
	
		<linearGradient id="SVGID_23_" gradientUnits="userSpaceOnUse" x1="-292.7838" y1="406.1338" x2="-291.7838" y2="406.1338" gradientTransform="matrix(5.8657 0 0 -5.8657 1789.334 2434.6997)">
		<stop  offset="0" style="stop-color:#62B453"/>
		<stop  offset="1" style="stop-color:#008E36"/>
	</linearGradient>
	<rect x="71.9" y="43.2" class="st8" width="6" height="18.4"/>
</g>
</svg>
