<?xml version="1.0" encoding="utf-8"?>
<!-- Generator: Adobe Illustrator 25.1.0, SVG Export Plug-In . SVG Version: 6.00 Build 0)  -->
<svg version="1.1" id="Ebene_1" xmlns="http://www.w3.org/2000/svg" xmlns:xlink="http://www.w3.org/1999/xlink" x="0px" y="0px"
	 viewBox="0 0 128.8 128.8" style="enable-background:new 0 0 128.8 128.8;" xml:space="preserve">
<style type="text/css">
	.st0{clip-path:url(#SVGID_2_);fill:#031F1D;}
	.st1{clip-path:url(#SVGID_2_);fill:none;stroke:#FFFFFF;stroke-width:2;}
	.st2{fill:url(#SVGID_3_);}
	.st3{clip-path:url(#SVGID_5_);fill:url(#SVGID_6_);}
</style>
<g>
	<defs>
		<rect id="SVGID_1_" x="14.6" y="14.6" width="99.6" height="99.6"/>
	</defs>
	<clipPath id="SVGID_2_">
		<use xlink:href="#SVGID_1_"  style="overflow:visible;"/>
	</clipPath>
	<path class="st0" d="M64.4,113.2c27,0,48.8-21.9,48.8-48.8S91.4,15.6,64.4,15.6S15.6,37.4,15.6,64.4S37.4,113.2,64.4,113.2"/>
	<circle class="st1" cx="64.4" cy="64.4" r="48.8"/>
</g>
<linearGradient id="SVGID_3_" gradientUnits="userSpaceOnUse" x1="-228.6518" y1="367.1107" x2="-227.6518" y2="367.1107" gradientTransform="matrix(56.9375 0 0 -56.9375 13054.792 20964.6406)">
	<stop  offset="0" style="stop-color:#62B453"/>
	<stop  offset="1" style="stop-color:#008E36"/>
</linearGradient>
<path class="st2" d="M37.4,62.3l-0.7-0.7l26.7-25.8c0.4-0.4,1-0.4,1.4,0l7.3,6.9l0-2.6c0-0.3,0.1-0.5,0.3-0.7
	c0.2-0.2,0.4-0.3,0.7-0.3h9.6c0.3,0,0.5,0.1,0.7,0.3c0.2,0.2,0.3,0.4,0.3,0.7v12.7l8.4,8.4c0.3,0.3,0.4,0.7,0.2,1.1
	c-0.2,0.4-0.5,0.6-0.9,0.6h-6.1V88c0,0.3-0.1,0.5-0.3,0.7c-0.2,0.2-0.4,0.3-0.7,0.3h-40c-0.3,0-0.5-0.1-0.7-0.3s-0.3-0.4-0.3-0.7
	V63.3l-5.8,0c-0.4,0-0.8-0.2-0.9-0.6s-0.1-0.8,0.2-1.1L37.4,62.3v-1h6.8c0.3,0,0.5,0.1,0.7,0.3c0.2,0.2,0.3,0.4,0.3,0.7V87h38
	l0-25.2c0-0.3,0.1-0.5,0.3-0.7c0.2-0.2,0.4-0.3,0.7-0.3H89l-7-7l-0.3-0.7V41h-7.6v3.9c0,0.4-0.2,0.8-0.6,0.9s-0.8,0.1-1.1-0.2
	l-8.3-7.8L38.1,63L37.4,62.3v-1V62.3z"/>
<g>
	<defs>
		<path id="SVGID_4_" d="M62.7,59.2v6c0,0.2-0.2,0.4-0.4,0.4h-6c-1,0-1.8,0.8-1.8,1.8c0,1,0.8,1.8,1.8,1.8h6c0.2,0,0.4,0.2,0.4,0.4
			v5.9c0,1,0.8,1.8,1.7,1.8c1,0,1.8-0.8,1.8-1.8v-5.9c0-0.2,0.2-0.4,0.3-0.4h6c1,0,1.7-0.8,1.7-1.8c0-1-0.8-1.8-1.7-1.8h-6
			c-0.2,0-0.3-0.2-0.3-0.4v-6c0-1-0.8-1.7-1.8-1.7C63.4,57.4,62.7,58.2,62.7,59.2"/>
	</defs>
	<clipPath id="SVGID_5_">
		<use xlink:href="#SVGID_4_"  style="overflow:visible;"/>
	</clipPath>
	
		<linearGradient id="SVGID_6_" gradientUnits="userSpaceOnUse" x1="-220.3685" y1="375.4313" x2="-219.3685" y2="375.4313" gradientTransform="matrix(19.6 0 0 -19.6 4373.8232 7425.689)">
		<stop  offset="0" style="stop-color:#62B453"/>
		<stop  offset="1" style="stop-color:#008E36"/>
	</linearGradient>
	<rect x="54.6" y="57.4" class="st3" width="19.6" height="19.6"/>
</g>
</svg>
