<?xml version="1.0" encoding="utf-8"?>
<!-- Generator: Adobe Illustrator 25.1.0, SVG Export Plug-In . SVG Version: 6.00 Build 0)  -->
<svg version="1.1" id="Ebene_1" xmlns="http://www.w3.org/2000/svg" xmlns:xlink="http://www.w3.org/1999/xlink" x="0px" y="0px"
	 viewBox="0 0 128.8 128.8" style="enable-background:new 0 0 128.8 128.8;" xml:space="preserve">
<style type="text/css">
	.st0{clip-path:url(#SVGID_2_);fill:#031F1D;}
	.st1{clip-path:url(#SVGID_2_);fill:none;stroke:#FFFFFF;stroke-width:2;}
	.st2{clip-path:url(#SVGID_4_);fill:url(#SVGID_5_);}
	.st3{clip-path:url(#SVGID_7_);fill:url(#SVGID_8_);}
	.st4{clip-path:url(#SVGID_10_);fill:url(#SVGID_11_);}
	.st5{clip-path:url(#SVGID_13_);fill:url(#SVGID_14_);}
	.st6{clip-path:url(#SVGID_16_);fill:url(#SVGID_17_);}
	.st7{clip-path:url(#SVGID_19_);fill:url(#SVGID_20_);}
	.st8{clip-path:url(#SVGID_22_);fill:url(#SVGID_23_);}
</style>
<g>
	<defs>
		<rect id="SVGID_1_" x="14.6" y="14.6" width="99.6" height="99.6"/>
	</defs>
	<clipPath id="SVGID_2_">
		<use xlink:href="#SVGID_1_"  style="overflow:visible;"/>
	</clipPath>
	<path class="st0" d="M64.4,113.2c27,0,48.8-21.9,48.8-48.8S91.4,15.6,64.4,15.6S15.6,37.4,15.6,64.4S37.4,113.2,64.4,113.2"/>
	<circle class="st1" cx="64.4" cy="64.4" r="48.8"/>
</g>
<g>
	<defs>
		<path id="SVGID_3_" d="M84.9,42.5C84.9,42.5,84.9,42.5,84.9,42.5c-0.9,0.2-1.2,1.4-0.5,2.1c0.7,0.7,1.4,1.5,2.1,2.4
			c3.8,4.8,5.8,10.3,6,16.4c0.1,2.3-0.1,4.6-0.6,6.8c-0.8,3.7-2.2,7.1-4.3,10.2c-1,1.4-2.1,2.7-3.3,4C84,84.7,83.9,85,84,85.5
			c0.2,0.9,1.3,1.2,1.9,0.5c1.1-1.1,2.1-2.3,3-3.6c3.7-5.1,5.6-10.7,5.8-16.9c0.1-1.4,0-2.7-0.1-4.1c-0.1-1.4-0.4-2.9-0.7-4.3
			c-1.3-5.4-3.9-10-7.7-14c-0.3-0.3-0.5-0.5-0.9-0.7H84.9z"/>
	</defs>
	<clipPath id="SVGID_4_">
		<use xlink:href="#SVGID_3_"  style="overflow:visible;"/>
	</clipPath>
	
		<linearGradient id="SVGID_5_" gradientUnits="userSpaceOnUse" x1="-210.2195" y1="387.103" x2="-209.2195" y2="387.103" gradientTransform="matrix(10.8679 0 0 -10.8679 2368.6123 4271.5518)">
		<stop  offset="0" style="stop-color:#62B453"/>
		<stop  offset="1" style="stop-color:#008E36"/>
	</linearGradient>
	<rect x="83.7" y="42.5" class="st2" width="11.2" height="44.1"/>
</g>
<g>
	<defs>
		<path id="SVGID_6_" d="M43.5,42.5c-0.3,0.1-0.5,0.3-0.7,0.5c-1,1.1-2,2.2-2.9,3.4c-3.7,5.1-5.6,10.7-5.8,17c0,1.3,0,2.7,0.1,4
			c0.1,1.4,0.4,2.7,0.7,4.1c0.9,3.9,2.5,7.4,4.8,10.7c1,1.4,2.1,2.6,3.2,3.8c0.3,0.3,0.6,0.4,1,0.3c0.4-0.1,0.7-0.4,0.9-0.8
			c0.1-0.4,0-0.8-0.3-1.2c-0.9-0.9-1.7-1.9-2.5-2.9c-3.6-4.7-5.4-10-5.7-15.9c-0.1-2.2,0.1-4.4,0.5-6.6c0.7-3.8,2.2-7.2,4.3-10.4
			c1-1.5,2.1-2.8,3.4-4.1c0.6-0.6,0.4-1.7-0.5-1.9c0,0-0.1,0-0.1,0H43.5z"/>
	</defs>
	<clipPath id="SVGID_7_">
		<use xlink:href="#SVGID_6_"  style="overflow:visible;"/>
	</clipPath>
	
		<linearGradient id="SVGID_8_" gradientUnits="userSpaceOnUse" x1="-210.2231" y1="387.1099" x2="-209.2231" y2="387.1099" gradientTransform="matrix(10.8696 0 0 -10.8696 2319.0171 4272.1699)">
		<stop  offset="0" style="stop-color:#62B453"/>
		<stop  offset="1" style="stop-color:#008E36"/>
	</linearGradient>
	<rect x="33.9" y="42.5" class="st3" width="11.2" height="43.9"/>
</g>
<g>
	<defs>
		<path id="SVGID_9_" d="M59.7,64.4c0-2.6,2.1-4.7,4.7-4.7c2.6,0,4.7,2.1,4.7,4.7c0,2.6-2.1,4.7-4.7,4.7
			C61.8,69.1,59.7,67,59.7,64.4 M57.4,64.3c0,3.9,3.1,7.1,7,7.1c3.9,0,7-3.2,7-6.9c0-3.9-3-7.1-7-7.1C60.6,57.4,57.4,60.5,57.4,64.3
			"/>
	</defs>
	<clipPath id="SVGID_10_">
		<use xlink:href="#SVGID_9_"  style="overflow:visible;"/>
	</clipPath>
	
		<linearGradient id="SVGID_11_" gradientUnits="userSpaceOnUse" x1="-215.3257" y1="380.4854" x2="-214.3257" y2="380.4854" gradientTransform="matrix(14.0075 0 0 -14.0075 3073.574 5394.0645)">
		<stop  offset="0" style="stop-color:#62B453"/>
		<stop  offset="1" style="stop-color:#008E36"/>
	</linearGradient>
	<rect x="57.4" y="57.4" class="st4" width="14.1" height="14.1"/>
</g>
<g>
	<defs>
		<path id="SVGID_12_" d="M79.3,48.1c-0.9,0.2-1.2,1.3-0.5,1.9c0.4,0.4,0.8,0.8,1.1,1.2c3.1,3.7,4.7,8,4.8,12.8
			c0,1.4-0.1,2.8-0.3,4.1c-0.5,2.5-1.4,4.8-2.7,7c-0.8,1.3-1.8,2.5-2.9,3.6c-0.3,0.3-0.4,0.6-0.4,0.9c0,0.5,0.3,0.9,0.8,1
			c0.5,0.2,0.9,0.1,1.2-0.3c0.6-0.6,1.1-1.2,1.7-1.9c3.3-4.1,4.9-8.9,4.9-13.8c0-1.9-0.1-3.4-0.4-4.8c-0.6-3-1.8-5.8-3.5-8.4
			c-0.8-1.2-1.7-2.2-2.7-3.2c-0.2-0.2-0.5-0.4-0.8-0.4C79.5,48,79.4,48,79.3,48.1"/>
	</defs>
	<clipPath id="SVGID_13_">
		<use xlink:href="#SVGID_12_"  style="overflow:visible;"/>
	</clipPath>
	
		<linearGradient id="SVGID_14_" gradientUnits="userSpaceOnUse" x1="-204.1708" y1="393.0631" x2="-203.1708" y2="393.0631" gradientTransform="matrix(8.5877 0 0 -8.5877 1831.8037 3439.9565)">
		<stop  offset="0" style="stop-color:#62B453"/>
		<stop  offset="1" style="stop-color:#008E36"/>
	</linearGradient>
	<rect x="78.2" y="48" class="st5" width="8.9" height="32.8"/>
</g>
<g>
	<defs>
		<path id="SVGID_15_" d="M48.4,48.4c-0.6,0.6-1.1,1.2-1.7,1.9c-3.3,4.1-4.9,8.9-4.9,13.7c0,1.9,0.1,3.4,0.4,4.9
			c0.6,3,1.8,5.8,3.5,8.3c0.8,1.2,1.7,2.2,2.7,3.2c0.3,0.3,0.7,0.4,1.1,0.3c0.9-0.2,1.2-1.3,0.5-1.9c-0.4-0.4-0.8-0.8-1.1-1.2
			c-3.1-3.7-4.7-8-4.8-12.8c0-1.4,0.1-2.8,0.3-4.1c0.5-2.5,1.4-4.8,2.7-7c0.8-1.3,1.8-2.5,2.9-3.6c0.3-0.3,0.4-0.6,0.4-0.9
			c0-0.5-0.3-0.8-0.8-1c-0.1,0-0.3-0.1-0.4-0.1C48.9,48,48.6,48.1,48.4,48.4"/>
	</defs>
	<clipPath id="SVGID_16_">
		<use xlink:href="#SVGID_15_"  style="overflow:visible;"/>
	</clipPath>
	
		<linearGradient id="SVGID_17_" gradientUnits="userSpaceOnUse" x1="-204.1658" y1="393.0692" x2="-203.1658" y2="393.0692" gradientTransform="matrix(8.5862 0 0 -8.5862 1794.7775 3439.4016)">
		<stop  offset="0" style="stop-color:#62B453"/>
		<stop  offset="1" style="stop-color:#008E36"/>
	</linearGradient>
	<rect x="41.8" y="48" class="st6" width="8.9" height="32.8"/>
</g>
<g>
	<defs>
		<path id="SVGID_18_" d="M73.7,53.6c-0.9,0.2-1.1,1.3-0.5,1.9c2.8,2.9,4,6.4,3.5,10.4c-0.2,1.6-0.7,3.1-1.4,4.5
			c-0.6,1-1.3,2-2.1,2.8c-0.3,0.3-0.4,0.6-0.3,1c0.1,0.5,0.4,0.8,0.8,0.9c0.4,0.1,0.8,0,1.2-0.3c2.8-2.9,4.2-6.4,4.3-10.6
			c0-0.3,0-0.8-0.1-1.2c-0.1-1.3-0.4-2.6-0.8-3.8c-0.7-2-1.9-3.8-3.4-5.4c-0.2-0.2-0.5-0.4-0.8-0.4C74,53.6,73.9,53.6,73.7,53.6"/>
	</defs>
	<clipPath id="SVGID_19_">
		<use xlink:href="#SVGID_18_"  style="overflow:visible;"/>
	</clipPath>
	
		<linearGradient id="SVGID_20_" gradientUnits="userSpaceOnUse" x1="-193.7642" y1="403.2991" x2="-192.7642" y2="403.2991" gradientTransform="matrix(6.31 0 0 -6.31 1295.5688 2609.2483)">
		<stop  offset="0" style="stop-color:#62B453"/>
		<stop  offset="1" style="stop-color:#008E36"/>
	</linearGradient>
	<rect x="72.7" y="53.6" class="st7" width="6.6" height="21.8"/>
</g>
<g>
	<defs>
		<path id="SVGID_21_" d="M53.9,53.9c-2.9,2.9-4.3,6.4-4.3,10.3c0,1.4,0.1,2.5,0.4,3.6c0.6,2.7,2,5.1,3.9,7.1
			c0.3,0.3,0.7,0.4,1.1,0.3c0.9-0.2,1.1-1.3,0.5-1.9c-2.2-2.3-3.5-5.1-3.6-8.3c-0.1-1.5,0.1-3.1,0.6-4.5c0.6-1.9,1.6-3.5,3-4.9
			c0.3-0.3,0.5-0.7,0.3-1.2c-0.2-0.5-0.6-0.8-1.1-0.8C54.4,53.6,54.1,53.7,53.9,53.9"/>
	</defs>
	<clipPath id="SVGID_22_">
		<use xlink:href="#SVGID_21_"  style="overflow:visible;"/>
	</clipPath>
	
		<linearGradient id="SVGID_23_" gradientUnits="userSpaceOnUse" x1="-193.7294" y1="403.3358" x2="-192.7294" y2="403.3358" gradientTransform="matrix(6.3044 0 0 -6.3044 1270.9196 2607.2207)">
		<stop  offset="0" style="stop-color:#62B453"/>
		<stop  offset="1" style="stop-color:#008E36"/>
	</linearGradient>
	<rect x="49.6" y="53.6" class="st8" width="6.6" height="21.8"/>
</g>
</svg>
