<?xml version="1.0" encoding="utf-8"?>
<!-- Generator: Adobe Illustrator 25.0.0, SVG Export Plug-In . SVG Version: 6.00 Build 0)  -->
<svg version="1.1" id="Ebene_1" xmlns="http://www.w3.org/2000/svg" xmlns:xlink="http://www.w3.org/1999/xlink" x="0px" y="0px"
	 viewBox="0 0 128.8 128.8" style="enable-background:new 0 0 128.8 128.8;" xml:space="preserve">
<style type="text/css">
	.st0{clip-path:url(#SVGID_2_);fill:#031F1D;}
	.st1{clip-path:url(#SVGID_2_);fill:none;stroke:#FFFFFF;stroke-width:2;}
	.st2{clip-path:url(#SVGID_4_);fill:url(#SVGID_5_);}
	.st3{clip-path:url(#SVGID_7_);fill:url(#SVGID_8_);}
</style>
<g>
	<defs>
		<rect id="SVGID_1_" x="14.6" y="14.6" width="99.6" height="99.6"/>
	</defs>
	<clipPath id="SVGID_2_">
		<use xlink:href="#SVGID_1_"  style="overflow:visible;"/>
	</clipPath>
	<path class="st0" d="M64.4,113.2c27,0,48.8-21.9,48.8-48.8S91.4,15.6,64.4,15.6S15.6,37.5,15.6,64.4S37.5,113.2,64.4,113.2"/>
	<circle class="st1" cx="64.4" cy="64.4" r="48.8"/>
</g>
<g>
	<defs>
		<path id="SVGID_3_" d="M53.9,46.6c1.7-1,3.5-1.7,5.3-2.2c0.8-0.2,1.3-0.9,1.3-1.7v-2.6c0-1.1,0.9-2,2-2h3.7c1.1,0,2,0.9,2,2v2.6
			c0,0.8,0.5,1.5,1.3,1.7c1.9,0.5,3.7,1.2,5.3,2.2c0.7,0.4,1.6,0.3,2.1-0.3l1.8-1.8c0.8-0.8,2.1-0.8,2.8,0l2.6,2.6
			c0.8,0.8,0.8,2,0,2.8l-1.8,1.8c-0.6,0.6-0.7,1.4-0.3,2.1c1,1.7,1.7,3.5,2.2,5.3c0.2,0.8,0.9,1.3,1.7,1.3h2.6c1.1,0,2,0.9,2,2v3.7
			c0,1.1-0.9,2-2,2h-2.6c-0.8,0-1.5,0.5-1.7,1.3c-0.5,1.9-1.2,3.7-2.2,5.3c-0.4,0.7-0.3,1.6,0.3,2.1l1.8,1.8c0.8,0.8,0.8,2.1,0,2.8
			l-2.6,2.6c-0.8,0.8-2,0.8-2.8,0L77,82.5c-0.6-0.6-1.4-0.7-2.1-0.3c-1.7,1-3.5,1.7-5.3,2.2c-0.8,0.2-1.3,0.9-1.3,1.7v2.6
			c0,1.1-0.9,2-2,2h-3.7c-1.1,0-2-0.9-2-2v-2.6c0-0.8-0.5-1.5-1.3-1.7c-1.9-0.5-3.7-1.2-5.3-2.2c-0.8-0.5-1.7-0.1-2.1,0.3L50,84.3
			c-0.8,0.8-2.1,0.8-2.8,0l-2.6-2.6c-0.8-0.8-0.8-2,0-2.8l1.8-1.8c0.6-0.6,0.7-1.4,0.3-2.1c-1-1.7-1.7-3.5-2.2-5.3
			c-0.2-0.8-0.9-1.3-1.7-1.3h-2.6c-1.1,0-2-0.9-2-2v-3.7c0-1.1,0.9-2,2-2h2.6c0.8,0,1.5-0.5,1.7-1.3c0.5-1.9,1.2-3.7,2.2-5.3
			c0.4-0.7,0.3-1.6-0.3-2.1L44.5,50c-0.8-0.8-0.8-2.1,0-2.8l2.6-2.6c0.8-0.8,2-0.8,2.8,0l1.8,1.8c0.3,0.3,0.8,0.5,1.2,0.5
			C53.3,46.9,53.7,46.8,53.9,46.6 M62.6,34.7c-3,0-5.5,2.5-5.5,5.5v1.3c-1.3,0.4-2.5,0.9-3.7,1.5l-0.9-0.9c-2.2-2.2-5.6-2.1-7.7,0
			l-2.6,2.6c-2.1,2.1-2.2,5.6,0,7.7l0.9,0.9c-0.6,1.2-1.1,2.4-1.5,3.7h-1.3c-3,0-5.5,2.5-5.5,5.5v3.7c0,3,2.5,5.5,5.5,5.5h1.3
			c0.4,1.3,0.9,2.5,1.5,3.7l-0.9,0.9c-2.2,2.2-2.1,5.6,0,7.7l2.6,2.6c2.1,2.1,5.6,2.2,7.7,0l0.9-0.9c1.2,0.6,2.4,1.1,3.7,1.5v1.3
			c0,3,2.5,5.5,5.5,5.5h3.7c3,0,5.5-2.5,5.5-5.5v-1.3c1.3-0.4,2.5-0.9,3.7-1.5l0.9,0.9c2.2,2.2,5.6,2.1,7.8,0l2.6-2.6
			c2.1-2.1,2.2-5.6,0-7.7l-0.9-0.9c0.6-1.2,1.1-2.4,1.5-3.7h1.3c3,0,5.5-2.5,5.5-5.5v-3.7c0-3-2.5-5.5-5.5-5.5h-1.3
			c-0.4-1.3-0.9-2.5-1.5-3.7l0.9-0.9c2.2-2.2,2.1-5.6,0-7.7l-2.6-2.6c-2.1-2.1-5.6-2.2-7.8,0L75.5,43c-1.2-0.6-2.4-1.1-3.7-1.5v-1.3
			c0-3-2.5-5.5-5.5-5.5H62.6z"/>
	</defs>
	<clipPath id="SVGID_4_">
		<use xlink:href="#SVGID_3_"  style="overflow:visible;"/>
	</clipPath>
	
		<linearGradient id="SVGID_5_" gradientUnits="userSpaceOnUse" x1="-235.7225" y1="355.1654" x2="-234.7225" y2="355.1654" gradientTransform="matrix(59.5208 0 0 -59.5208 14065.0596 21204.1602)">
		<stop  offset="0" style="stop-color:#62B453"/>
		<stop  offset="1" style="stop-color:#008E36"/>
	</linearGradient>
	<rect x="34.7" y="34.7" class="st2" width="59.5" height="59.5"/>
</g>
<g>
	<defs>
		<path id="SVGID_6_" d="M55,64.4c0-5.2,4.2-9.5,9.5-9.5s9.5,4.2,9.5,9.5s-4.2,9.5-9.5,9.5S55,69.6,55,64.4 M51.5,64.4
			c0,7.1,5.8,13,13,13s12.9-5.8,12.9-13c0-7.1-5.8-12.9-12.9-12.9S51.5,57.3,51.5,64.4"/>
	</defs>
	<clipPath id="SVGID_7_">
		<use xlink:href="#SVGID_6_"  style="overflow:visible;"/>
	</clipPath>
	
		<linearGradient id="SVGID_8_" gradientUnits="userSpaceOnUse" x1="-230.1701" y1="360.3218" x2="-229.1702" y2="360.3218" gradientTransform="matrix(25.9009 0 0 -25.9009 6013.0786 9397.0674)">
		<stop  offset="0" style="stop-color:#62B453"/>
		<stop  offset="1" style="stop-color:#008E36"/>
	</linearGradient>
	<rect x="51.5" y="51.5" class="st3" width="25.9" height="25.9"/>
</g>
</svg>
